<?xml version="1.0" standalone="no"?>
<!DOCTYPE svg PUBLIC "-//W3C//DTD SVG 20010904//EN"
 "http://www.w3.org/TR/2001/REC-SVG-20010904/DTD/svg10.dtd">
<svg version="1.0" xmlns="http://www.w3.org/2000/svg"
 width="512.000000pt" height="512.000000pt" viewBox="0 0 512.000000 512.000000"
 preserveAspectRatio="xMidYMid meet">
<metadata>
Created by potrace 1.11, written by Peter Selinger 2001-2013
</metadata>
<g transform="translate(0.000000,512.000000) scale(0.100000,-0.100000)"
fill="#000000" stroke="none">
<path d="M2249 5116 c-2 -2 -33 -7 -69 -11 -36 -4 -68 -9 -71 -11 -3 -2 -19
-6 -35 -8 -31 -6 -61 -12 -109 -22 -178 -36 -488 -162 -697 -282 -77 -45 -245
-156 -258 -171 -3 -3 -36 -31 -75 -62 -76 -62 -222 -202 -301 -289 -281 -315
-496 -734 -588 -1151 -4 -17 -12 -26 -22 -25 -9 0 -19 -5 -21 -11 -3 -8 4 -13
15 -13 18 0 20 -4 12 -29 -20 -69 -25 -174 -24 -481 0 -313 3 -372 26 -470 5
-25 12 -56 14 -70 14 -75 66 -246 111 -363 236 -617 705 -1124 1303 -1410 231
-110 519 -198 734 -224 77 -10 651 -10 731 -1 42 5 62 4 67 -5 6 -9 12 -7 22
5 7 10 35 22 62 28 87 17 96 19 188 46 403 117 795 344 1071 619 90 90 107
120 113 205 3 53 0 74 -17 111 -41 87 -115 142 -207 154 -91 12 -160 -20 -272
-126 -166 -158 -405 -313 -605 -390 -29 -11 -66 -26 -82 -34 -27 -12 -161 -53
-225 -68 l-25 -6 1 722 c1 397 2 729 3 739 1 14 139 99 396 243 22 13 81 47
130 75 50 29 156 91 238 138 81 46 147 88 147 92 0 5 -523 312 -655 385 -11 6
-58 33 -105 60 l-85 50 1018 3 c808 2 1018 5 1014 15 -6 18 -2037 18 -2037 -1
0 -9 -12 -6 -40 8 -57 29 -81 10 -42 -33 12 -15 14 -21 4 -24 -6 -3 -9 -10 -6
-15 4 -6 2 -8 -4 -4 -6 3 -13 2 -17 -4 -3 -5 -2 -10 4 -10 10 0 8 -60 -3 -79
-4 -6 -3 -11 2 -11 5 0 9 -7 9 -15 0 -8 -4 -12 -8 -9 -4 2 -12 -3 -17 -12 -8
-15 -10 -15 -16 1 -3 9 -3 21 0 27 4 6 1 8 -7 6 -8 -3 -13 -13 -13 -22 1 -9
-2 -16 -7 -16 -5 0 -9 7 -9 15 0 20 -14 19 -31 -2 -12 -15 -12 -16 3 -10 10 3
19 3 22 -1 9 -16 -33 -10 -46 6 -7 9 -8 13 -2 9 8 -4 11 3 9 22 -3 33 3 45 25
49 11 2 10 -1 -3 -12 -10 -8 -14 -17 -9 -20 10 -6 27 22 23 37 -1 5 4 5 10 1
8 -5 9 -3 4 6 -6 9 -4 11 5 5 9 -6 11 -4 6 6 -4 8 0 5 10 -6 14 -17 16 -18 10
-2 -3 10 -2 15 3 12 5 -3 12 -1 15 4 3 5 -4 11 -15 14 -14 4 -18 10 -13 18 6
10 9 10 12 1 7 -21 21 -13 17 9 -5 25 -15 38 -15 20 0 -7 -4 -10 -9 -7 -5 3
-14 -1 -21 -9 -7 -8 -17 -15 -22 -15 -6 0 -5 7 2 15 7 9 10 18 6 22 -3 3 -6 1
-6 -5 0 -6 -6 -9 -14 -6 -15 6 -40 -29 -29 -40 3 -3 1 -6 -7 -6 -10 0 -10 -3
-1 -14 7 -8 8 -17 3 -20 -10 -6 -9 -36 2 -54 4 -6 2 -12 -3 -12 -6 0 -9 -10
-7 -22 3 -21 8 -23 69 -23 37 0 63 4 60 9 -4 5 -1 6 5 2 18 -11 15 -66 -3 -66
-8 0 -15 -6 -15 -12 0 -10 -2 -10 -8 -1 -9 14 -82 15 -82 1 0 -5 6 -6 13 -2 9
6 9 4 -1 -8 -11 -14 -10 -18 5 -27 10 -6 14 -10 8 -10 -5 0 -19 6 -29 14 -11
8 -15 15 -8 15 6 0 9 7 5 15 -3 9 -8 13 -12 10 -10 -11 -9 -90 3 -104 8 -11 8
-13 -1 -7 -7 4 -13 2 -13 -3 0 -6 6 -11 13 -11 8 0 7 -4 -3 -10 -13 -9 -13
-11 0 -20 8 -5 10 -10 4 -10 -6 0 -11 -7 -11 -15 0 -15 9 -17 100 -17 45 0 47
-1 47 -27 0 -25 -3 -27 -45 -28 -25 -1 -58 -2 -73 -2 l-29 -1 0 -100 -1 -100
74 0 c72 0 74 -1 74 -25 0 -23 -3 -25 -52 -26 -29 -1 -62 0 -74 0 -20 2 -21
-3 -23 -103 l-1 -104 42 0 c24 0 59 0 78 -1 l35 -2 -45 -24 c-25 -13 -60 -24
-77 -25 -26 0 -33 -4 -33 -20 0 -16 -26 -40 -44 -40 -3 0 -6 14 -6 30 0 17 -6
30 -12 31 -45 4 -177 1 -185 -4 -5 -3 -8 -44 -8 -92 1 -49 -3 -89 -9 -94 -6
-5 -36 -22 -67 -38 -45 -24 -67 -29 -117 -27 l-61 2 -3 -40 c-2 -29 -10 -45
-25 -56 -23 -14 -23 -14 -23 41 l0 55 -52 0 c-89 0 -90 0 -86 25 3 23 4 23
105 26 l31 1 1 100 1 100 -25 1 c-113 4 -110 3 -113 27 -4 24 -5 24 78 26 l55
1 0 100 0 100 -66 3 c-63 3 -66 4 -66 27 0 24 2 25 67 25 l67 0 0 100 c0 65
-4 100 -11 101 -6 1 -36 1 -67 1 -55 0 -56 0 -57 28 -1 26 2 27 34 25 28 -2
34 1 29 14 -4 14 -4 14 7 1 13 -14 57 -23 59 -11 0 3 2 21 5 39 2 21 0 31 -6
27 -6 -3 -10 -1 -10 4 0 6 3 11 8 11 4 0 7 27 7 60 1 33 -3 60 -8 60 -4 0 -7
-8 -5 -17 2 -12 -4 -19 -19 -21 -13 -2 -23 1 -23 6 0 6 9 8 20 5 15 -4 19 -1
15 9 -3 8 -22 15 -41 16 -23 2 -33 -1 -29 -8 3 -5 1 -10 -4 -10 -6 0 -11 5
-11 10 0 6 -7 10 -15 10 -11 0 -15 8 -12 28 4 26 6 27 65 27 59 -1 60 0 65 28
l4 28 -22 -26 c-20 -23 -23 -24 -30 -8 -6 17 -7 17 -21 -1 -10 -14 -14 -16
-14 -5 0 12 -2 12 -10 -1 -5 -8 -10 -10 -10 -5 0 6 6 20 14 31 10 13 11 25 5
35 -5 8 -9 12 -10 9 -5 -31 -9 -41 -19 -57 -8 -13 -10 -14 -7 -2 3 9 0 22 -6
28 -9 9 -7 11 8 5 16 -6 18 -5 8 7 -18 18 -16 30 3 27 10 -2 19 2 21 9 3 8 -3
11 -16 8 -24 -4 -28 14 -8 34 10 11 9 13 -5 8 -10 -4 -18 -2 -18 3 0 6 7 10
16 10 8 0 12 5 9 10 -4 6 -10 8 -14 6 -3 -3 -7 4 -7 14 0 19 14 19 390 20 214
0 391 2 394 4 17 18 -53 21 -397 21 -215 0 -391 3 -391 8 0 4 3 7 8 8 4 1 21
3 37 5 47 7 49 7 65 2 8 -3 12 -3 8 -1 -4 2 -4 12 -1 21 4 15 3 15 -7 2 -9
-11 -13 -12 -17 -2 -2 6 -9 12 -14 12 -6 0 -7 -4 -4 -10 3 -5 2 -10 -4 -10 -5
0 -12 4 -16 9 -7 13 26 30 44 23 8 -3 5 5 -7 18 -16 17 -19 27 -11 36 10 13
-6 32 -18 20 -4 -3 -1 -6 6 -6 7 0 10 -4 7 -9 -3 -4 -17 -7 -31 -6 -14 2 -23
0 -20 -5 3 -5 2 -10 -2 -13 -5 -2 -3 -3 3 -1 6 1 10 -14 10 -36 0 -21 -4 -36
-8 -34 -5 3 -6 9 -3 14 3 5 0 12 -6 16 -7 4 -9 3 -6 -2 3 -6 3 -15 -1 -21 -4
-6 -7 46 -7 115 0 91 3 129 12 135 7 4 13 13 13 20 0 7 -4 6 -10 -3 -11 -18
-10 -28 -13 107 -2 94 -11 118 -40 107 -15 -5 -17 -32 -17 -260 0 -140 -3
-255 -7 -255 -5 -1 -339 -2 -743 -3 -549 -1 -740 -5 -755 -13 -16 -10 148 -12
743 -13 l762 0 0 -784 0 -784 278 160 c152 88 295 170 317 183 82 46 241 138
273 157 l32 20 0 -735 0 -734 -57 -11 c-182 -35 -539 -37 -708 -6 -336 62
-643 195 -900 387 -102 77 -322 297 -406 407 -114 150 -203 308 -278 497 -37
95 -75 212 -85 263 -2 14 -11 57 -19 95 -25 114 -32 200 -32 385 0 153 6 257
20 333 15 80 39 174 46 183 5 6 7 13 4 16 -3 3 6 38 19 79 110 341 270 599
524 850 180 177 333 287 547 391 134 65 308 128 425 154 19 4 37 8 40 9 20 4
156 27 203 34 136 19 420 9 590 -20 l67 -12 0 -714 c0 -575 2 -713 13 -713 10
0 13 137 12 710 l0 709 25 -6 c176 -39 401 -133 590 -246 82 -49 234 -160 275
-202 59 -59 143 -128 179 -147 120 -61 282 -4 342 121 26 53 30 142 9 197 -18
49 -100 138 -215 234 -36 30 -67 58 -70 61 -3 3 -57 42 -120 86 -266 186 -556
316 -885 398 -78 19 -129 37 -127 44 1 6 -5 11 -13 11 -8 0 -15 -5 -15 -11 0
-7 -13 -8 -37 -4 -42 8 -696 18 -704 11z m-40 -1935 c8 -15 7 -20 -6 -25 -9
-4 -19 -3 -22 0 -3 4 0 9 7 11 10 4 10 8 1 19 -8 10 -8 14 -1 14 6 0 16 -9 21
-19z m680 -158 c-5 -32 3 -35 29 -12 15 13 21 17 15 10 -10 -11 -10 -18 -1
-30 7 -9 8 -13 3 -8 -4 4 -19 -3 -32 -15 -13 -12 -23 -18 -23 -14 0 5 -8 2
-17 -5 -15 -12 -16 -12 -8 1 5 8 10 26 11 40 2 37 3 40 14 40 6 0 9 -3 9 -7z
m189 -26 c12 -6 22 -19 22 -29 0 -10 5 -18 11 -18 5 0 7 5 3 12 -4 7 -3 8 4 4
17 -10 15 -26 -4 -26 -8 0 -12 -4 -9 -10 3 -5 0 -10 -7 -11 -10 0 -10 -2 0 -6
6 -2 10 -9 6 -14 -3 -5 -1 -9 4 -9 6 0 13 -7 16 -16 5 -14 4 -15 -8 -5 -12 10
-15 9 -13 -6 1 -17 11 -19 99 -19 67 0 98 4 100 12 2 8 27 -2 66 -24 l64 -37
-39 -5 -38 -5 -1 -97 c-2 -112 -10 -104 116 -103 l85 1 2 45 c1 24 2 55 2 68
1 22 2 23 24 9 17 -12 23 -28 27 -69 l5 -54 85 0 c86 -1 130 -9 130 -25 0 -16
-44 -24 -130 -25 l-85 0 -3 -52 c-2 -41 -8 -56 -25 -68 -12 -8 -24 -15 -27
-15 -3 0 -5 30 -5 67 l0 67 -97 1 c-54 0 -99 -2 -99 -5 -1 -3 -3 -49 -4 -102
l-1 -98 40 0 c37 0 39 -1 21 -13 -59 -40 -106 -61 -113 -50 -5 8 -40 11 -107
10 l-99 -2 1 -68 c1 -48 -3 -71 -13 -82 -32 -31 -40 -18 -38 65 1 69 -2 82
-18 91 -23 12 -23 23 0 45 13 14 17 36 18 110 1 81 -1 93 -17 97 -11 3 -16 12
-14 23 2 11 4 22 4 27 1 4 7 7 14 7 7 0 13 13 13 30 1 20 -2 27 -10 23 -8 -5
-8 -3 0 8 15 20 11 65 -6 61 -11 -3 -11 -1 0 13 18 22 21 45 7 45 -7 0 -5 5 3
10 12 8 11 10 -6 10 -17 0 -22 6 -20 25 0 14 8 27 17 30 18 6 18 37 0 59 -12
14 -12 16 1 11 22 -9 18 35 -4 57 -10 10 -18 22 -18 27 0 13 39 11 68 -2z
m-43 -57 c3 -5 1 -10 -4 -10 -6 0 -11 5 -11 10 0 6 2 10 4 10 3 0 8 -4 11 -10z
m125 -15 c-14 -17 -30 -20 -30 -4 0 5 4 8 9 4 5 -3 12 -1 16 5 3 5 9 10 12 10
3 0 0 -7 -7 -15z m55 -45 c3 -6 -1 -7 -9 -4 -18 7 -21 14 -7 14 6 0 13 -4 16
-10z m-305 -115 c0 -8 -4 -15 -10 -15 -5 0 -7 7 -4 15 4 8 8 15 10 15 2 0 4
-7 4 -15z m34 0 c3 -8 1 -15 -4 -15 -6 0 -10 7 -10 15 0 8 2 15 4 15 2 0 6 -7
10 -15z m-774 -30 c0 -5 -5 -3 -10 5 -5 8 -10 20 -10 25 0 6 5 3 10 -5 5 -8
10 -19 10 -25z m31 -8 c-10 -9 -11 -8 -5 6 3 10 9 15 12 12 3 -3 0 -11 -7 -18z
m731 6 c-6 -2 -10 -9 -6 -14 3 -5 0 -9 -5 -9 -12 0 -14 13 -4 23 3 4 11 7 17
6 6 0 5 -3 -2 -6z m45 1 c-3 -3 -12 -4 -19 -1 -8 3 -5 6 6 6 11 1 17 -2 13 -5z
m-724 -27 c3 -7 -3 -13 -13 -13 -10 0 -16 6 -13 13 3 7 9 13 13 13 4 0 10 -6
13 -13z m617 -7 c0 -5 -2 -10 -4 -10 -3 0 -8 5 -11 10 -3 6 -1 10 4 10 6 0 11
-4 11 -10z m95 -8 c-3 -3 -11 0 -18 7 -9 10 -8 11 6 5 10 -3 15 -9 12 -12z
m-65 -17 c14 -18 13 -19 -1 -8 -9 7 -19 10 -23 6 -4 -4 -4 1 0 10 3 10 7 17 8
15 1 -2 8 -12 16 -23z m-670 0 c0 -2 -9 -3 -19 -2 -11 0 -18 5 -15 9 4 6 34 0
34 -7z m738 -20 c-3 -3 -9 2 -12 12 -6 14 -5 15 5 6 7 -7 10 -15 7 -18z m-723
-34 c3 -5 2 -12 -3 -15 -5 -3 -9 1 -9 9 0 17 3 19 12 6z"/>
<path d="M2905 2990 c-3 -5 -11 -8 -18 -6 -7 1 -9 1 -4 -1 4 -3 4 -10 0 -16
-3 -7 3 -3 15 7 12 11 22 21 22 23 0 6 -9 3 -15 -7z"/>
<path d="M3026 2985 c4 -8 11 -15 16 -15 6 0 5 6 -2 15 -7 8 -14 15 -16 15 -2
0 -1 -7 2 -15z"/>
<path d="M3103 2778 c2 -7 1 -25 -3 -39 -5 -15 -4 -32 0 -40 5 -7 5 -20 0 -29
-5 -9 -5 -22 0 -30 5 -8 5 -19 0 -25 -18 -22 8 -30 103 -30 107 -1 99 -7 99
70 0 19 -1 58 -1 85 l-1 50 -101 0 c-76 0 -100 -3 -96 -12z m64 -33 c0 -8 -4
-12 -9 -9 -5 3 -6 10 -3 15 9 13 12 11 12 -6z"/>
<path d="M3099 2520 c0 -8 -2 -54 -2 -103 l-2 -87 103 0 c74 0 102 3 103 13 1
14 1 167 0 182 -1 6 -42 10 -101 10 -82 0 -100 -3 -101 -15z"/>
<path d="M2161 3546 c-1 -5 7 -18 17 -29 14 -17 14 -19 2 -15 -12 4 -16 -1
-15 -22 0 -20 4 -26 15 -23 8 3 4 -5 -9 -16 -13 -12 -22 -24 -19 -27 3 -2 22
12 42 32 20 20 34 39 31 42 -3 3 -11 -2 -18 -12 -12 -17 -14 -17 -28 0 -13 16
-12 17 4 11 10 -4 16 -3 13 2 -12 18 29 22 42 4 9 -10 13 -12 10 -4 -2 8 -15
21 -28 30 -18 12 -22 12 -16 2 6 -9 5 -12 -5 -9 -8 3 -13 11 -11 17 1 7 -2 10
-7 7 -5 -4 -12 0 -14 6 -3 7 -6 9 -6 4z"/>
<path d="M2230 3450 c0 -6 7 -10 15 -10 8 0 15 2 15 4 0 2 -7 6 -15 10 -8 3
-15 1 -15 -4z"/>
<path d="M2210 3438 c0 -9 5 -20 10 -23 13 -8 13 5 0 25 -8 13 -10 13 -10 -2z"/>
<path d="M2186 3415 c-9 -24 -7 -32 4 -15 7 11 10 12 10 2 0 -8 -10 -23 -22
-33 l-23 -20 28 17 c28 17 33 30 18 52 -7 11 -10 10 -15 -3z"/>
<path d="M2336 3418 c3 -4 11 -5 19 -1 21 7 19 12 -4 10 -11 0 -18 -5 -15 -9z"/>
<path d="M2234 3398 c-3 -4 0 -16 6 -25 9 -16 10 -15 5 4 -5 18 -3 22 9 17 9
-3 16 -2 16 3 0 12 -29 13 -36 1z"/>
<path d="M2335 3379 c-3 -4 2 -6 10 -5 21 3 28 13 10 13 -9 0 -18 -4 -20 -8z"/>
<path d="M2210 3359 c0 -5 5 -7 10 -4 6 3 10 8 10 11 0 2 -4 4 -10 4 -5 0 -10
-5 -10 -11z"/>
<path d="M2155 3291 c-3 -5 -2 -12 3 -15 5 -3 9 1 9 9 0 17 -3 19 -12 6z"/>
<path d="M2180 3285 c0 -8 4 -15 10 -15 5 0 7 7 4 15 -4 8 -8 15 -10 15 -2 0
-4 -7 -4 -15z"/>
<path d="M2213 3281 c2 -14 9 -27 15 -29 7 -2 9 -9 6 -14 -4 -7 -2 -8 4 -4 17
10 15 26 -4 26 -8 0 -13 4 -10 8 2 4 0 14 -5 22 -7 11 -8 9 -6 -9z"/>
<path d="M2238 3293 c7 -3 16 -2 19 1 4 3 -2 6 -13 5 -11 0 -14 -3 -6 -6z"/>
<path d="M2370 3260 c0 -5 5 -10 11 -10 5 0 7 5 4 10 -3 6 -8 10 -11 10 -2 0
-4 -4 -4 -10z"/>
<path d="M2165 3250 c-8 -13 3 -30 18 -29 9 0 9 2 0 6 -23 9 -14 25 10 18 17
-5 19 -4 7 4 -19 13 -27 14 -35 1z"/>
<path d="M2336 3242 c-3 -5 1 -9 9 -9 8 0 12 4 9 9 -3 4 -7 8 -9 8 -2 0 -6 -4
-9 -8z"/>
<path d="M2673 3225 c0 -8 4 -12 9 -9 5 3 6 10 3 15 -9 13 -12 11 -12 -6z"/>
<path d="M2415 3219 c-3 -4 2 -6 10 -5 21 3 28 13 10 13 -9 0 -18 -4 -20 -8z"/>
<path d="M2236 3202 c-2 -4 0 -14 6 -22 8 -12 9 -11 4 4 -5 14 -2 17 9 12 9
-3 13 -2 10 4 -7 12 -22 13 -29 2z"/>
<path d="M2376 3167 c3 -10 9 -15 12 -12 3 3 0 11 -7 18 -10 9 -11 8 -5 -6z"/>
<path d="M2260 3159 c0 -5 5 -7 10 -4 6 3 10 8 10 11 0 2 -4 4 -10 4 -5 0 -10
-5 -10 -11z"/>
<path d="M2353 3151 c0 -11 5 -18 9 -15 4 3 5 11 1 19 -7 21 -12 19 -10 -4z"/>
<path d="M2708 3156 c4 -6 7 -14 7 -18 0 -19 11 -14 11 6 0 12 -6 23 -13 23
-6 0 -9 -5 -5 -11z"/>
<path d="M2766 3162 c-3 -5 1 -9 9 -9 8 0 12 4 9 9 -3 4 -7 8 -9 8 -2 0 -6 -4
-9 -8z"/>
<path d="M2854 3143 c3 -4 0 -13 -7 -22 -10 -14 -10 -14 5 -3 9 8 22 11 28 7
5 -3 10 -2 10 3 0 5 -9 12 -21 15 -12 3 -18 3 -15 0z"/>
<path d="M2390 3121 c0 -6 4 -13 10 -16 6 -3 7 1 4 9 -7 18 -14 21 -14 7z"/>
<path d="M2736 3112 c-2 -4 4 -8 14 -8 10 0 16 4 14 8 -3 4 -9 8 -14 8 -5 0
-11 -4 -14 -8z"/>
<path d="M2895 3110 c-3 -5 -1 -10 4 -10 6 0 11 5 11 10 0 6 -2 10 -4 10 -3 0
-8 -4 -11 -10z"/>
<path d="M2161 3043 c-1 -6 3 -14 8 -17 10 -7 9 -25 -2 -43 -5 -7 -6 -14 -3
-14 3 -1 9 -2 14 -3 4 -1 13 -5 21 -10 11 -7 11 -10 0 -17 -8 -5 -9 -9 -4 -9
6 0 11 -9 12 -20 1 -11 -2 -20 -8 -20 -5 0 -9 -5 -9 -12 0 -9 3 -9 12 0 7 7
16 8 22 3 7 -6 18 -1 31 13 22 24 24 34 12 53 -4 6 -3 14 2 17 13 8 7 59 -8
64 -6 2 -8 8 -5 14 4 6 -2 5 -15 -1 -16 -9 -21 -9 -21 0 0 8 -4 8 -15 -1 -12
-10 -15 -10 -15 1 0 12 -2 12 -9 0 -7 -11 -9 -11 -14 0 -3 9 -6 10 -6 2z m99
-22 c8 -2 6 -44 -3 -58 -4 -6 -3 -14 3 -18 7 -4 7 -13 -1 -26 -8 -15 -14 -18
-23 -10 -7 6 -15 8 -19 5 -3 -3 -4 2 -2 13 3 22 -24 55 -39 46 -8 -5 -8 -3 0
8 6 8 10 21 9 30 -2 12 5 15 34 14 20 -1 38 -3 41 -4z"/>
<path d="M2199 3018 c-7 -26 -4 -40 12 -54 10 -9 16 -20 14 -24 -3 -4 1 -13 9
-19 10 -9 15 -8 20 4 3 9 -1 18 -9 22 -14 5 -14 7 0 17 14 10 12 14 -14 34
-17 12 -31 21 -32 20z m38 -50 c-14 -8 -30 5 -33 27 -2 12 2 12 21 -3 15 -11
19 -19 12 -24z"/>
<path d="M2500 3040 c-9 -6 -10 -10 -3 -10 6 0 15 5 18 10 8 12 4 12 -15 0z"/>
<path d="M2750 3035 c0 -8 4 -15 10 -15 5 0 7 7 4 15 -4 8 -8 15 -10 15 -2 0
-4 -7 -4 -15z"/>
<path d="M2841 3034 c0 -11 3 -14 6 -6 3 7 2 16 -1 19 -3 4 -6 -2 -5 -13z"/>
<path d="M2973 3031 c1 -15 4 -17 14 -9 7 5 10 14 7 19 -10 16 -23 9 -21 -10z"/>
<path d="M2343 3033 c-7 -3 -13 -9 -13 -15 0 -6 6 -6 15 2 8 7 15 8 15 2 0 -5
-6 -15 -13 -21 -18 -14 -16 -106 2 -123 8 -7 11 -8 8 -2 -3 6 0 11 8 11 11 0
12 -4 4 -13 -6 -7 -17 -10 -25 -7 -8 3 -14 0 -14 -7 0 -6 8 -10 18 -9 9 1 19
0 22 -1 17 -6 140 -4 140 3 0 4 5 5 10 2 6 -3 10 -1 10 5 0 7 -7 10 -14 7 -10
-4 -13 -1 -9 8 3 8 8 13 12 11 4 -3 8 7 9 22 2 20 -1 23 -10 14 -17 -17 -33
-15 -19 2 9 10 8 15 -3 19 -11 4 -13 1 -9 -10 5 -12 3 -14 -8 -8 -8 4 -11 5
-7 0 9 -9 -9 -35 -24 -35 -6 0 -5 6 2 15 6 8 9 19 5 25 -3 5 -1 10 4 10 6 0
11 7 11 15 0 8 5 15 12 15 6 0 8 3 4 7 -4 4 -18 -6 -32 -22 -20 -25 -24 -26
-22 -10 2 11 7 23 13 27 5 4 6 10 2 14 -4 4 -14 -2 -23 -14 -8 -12 -23 -22
-32 -22 -15 1 -15 2 -1 13 9 7 21 22 27 34 11 19 9 24 -9 33 -11 7 -23 9 -27
6 -3 -3 0 -6 7 -6 7 0 9 -4 6 -10 -4 -6 1 -7 11 -3 14 5 15 3 5 -15 -6 -11
-16 -24 -21 -27 -14 -9 -42 14 -34 27 4 6 10 5 15 -3 4 -7 10 -11 13 -9 9 9
-29 48 -41 43z m37 -94 c0 -5 -5 -8 -11 -6 -6 1 -13 -4 -14 -11 -2 -7 -1 -8 2
-2 3 7 10 4 19 -7 11 -14 13 -14 9 -2 -4 10 4 22 21 34 14 9 24 13 20 7 -3 -6
-3 -18 0 -27 5 -13 8 -14 15 -3 6 9 9 9 9 1 0 -6 -4 -14 -10 -18 -5 -3 -7 -12
-3 -21 5 -13 8 -13 25 2 10 10 27 18 37 19 17 1 17 0 3 -25 -9 -15 -21 -27
-28 -27 -9 0 -8 8 4 26 l16 26 -23 -23 c-12 -12 -26 -20 -32 -17 -5 4 -9 2 -9
-2 0 -5 -12 -8 -27 -7 -16 0 -27 5 -25 10 1 5 13 8 27 8 14 -1 25 3 25 7 0 5
-4 9 -10 9 -5 0 -9 3 -9 8 3 19 -2 32 -12 32 -8 0 -8 -5 1 -15 14 -17 15 -17
-25 -19 -30 -2 -31 -1 -31 47 0 50 0 50 18 27 10 -12 18 -26 18 -31z"/>
<path d="M2651 3033 c-1 -17 16 -25 25 -12 4 7 3 9 -4 5 -5 -3 -13 0 -15 6 -4
9 -6 10 -6 1z"/>
<path d="M2445 3019 c-4 -6 -4 -13 -1 -16 3 -4 6 -1 6 6 0 7 5 9 12 5 7 -4 8
-3 4 4 -9 15 -13 15 -21 1z"/>
<path d="M2517 3024 c-3 -3 -3 -12 -1 -19 3 -7 1 -16 -5 -20 -17 -10 -13 -32
7 -40 14 -5 15 -4 5 6 -14 14 -18 33 -5 25 5 -3 8 8 8 25 0 31 0 32 -9 23z"/>
<path d="M2599 3012 c-13 -15 -12 -16 4 -3 15 12 17 11 17 -7 0 -16 -5 -20
-17 -16 -15 5 -15 4 -3 -4 18 -13 30 -6 30 18 0 27 -15 33 -31 12z"/>
<path d="M2701 3013 c12 -14 12 -16 -2 -11 -9 3 -22 2 -30 -3 -12 -7 -12 -9 0
-9 11 0 10 -5 -4 -20 -10 -11 -23 -20 -29 -20 -6 0 -5 5 2 12 7 7 12 16 12 22
0 5 -6 1 -14 -9 -12 -17 -11 -53 2 -41 3 3 11 1 19 -5 10 -9 13 -8 13 1 0 17
13 4 16 -15 3 -18 -1 -18 -28 -4 -25 13 -36 0 -32 -37 1 -16 -2 -24 -9 -21
-14 4 -16 37 -4 54 5 7 2 24 -7 40 -13 25 -15 26 -13 6 1 -13 5 -23 9 -23 4 0
8 -5 8 -11 0 -5 -6 -7 -12 -3 -7 4 -10 4 -6 -1 4 -4 2 -15 -5 -23 -9 -13 -9
-14 1 -8 6 4 12 3 12 -1 0 -5 -6 -15 -12 -22 -7 -7 -8 -12 -3 -11 6 2 15 1 20
0 24 -6 73 -5 69 2 -3 5 -1 8 5 8 5 0 13 -5 16 -10 5 -8 11 -8 19 -1 7 6 16 8
20 4 11 -11 36 -12 36 -2 0 6 3 8 8 5 4 -2 8 9 8 25 1 16 -3 29 -8 29 -6 0 -5
7 2 15 9 11 9 15 1 15 -7 0 -9 5 -5 11 4 6 8 24 9 39 2 21 -1 27 -12 23 -8 -3
-11 -9 -6 -12 15 -11 15 -34 0 -28 -8 3 -24 -1 -36 -9 -11 -8 -21 -11 -21 -5
0 5 10 17 22 25 12 9 19 18 16 21 -3 4 -17 -5 -31 -19 -16 -16 -21 -28 -15
-34 6 -6 6 -12 -1 -16 -6 -4 -11 -2 -11 4 0 7 -9 9 -22 5 -19 -5 -16 0 13 27
33 31 41 58 17 58 -6 0 -4 -7 3 -17z m65 -81 c1 -15 3 -27 4 -27 1 0 3 -8 5
-18 4 -20 -30 -43 -40 -27 -5 8 -11 8 -19 1 -9 -7 -16 -7 -23 0 -8 8 -17 8
-32 0 -12 -7 -21 -10 -22 -9 -6 20 -4 50 4 55 6 3 7 1 3 -5 -8 -13 42 -11 64
3 9 6 11 4 5 -5 -6 -9 -4 -11 5 -5 8 5 11 4 6 -3 -7 -12 32 -8 43 4 3 4 -2 4
-11 1 -22 -8 -33 9 -12 17 18 7 12 19 -11 22 -7 1 -12 -3 -9 -10 3 -7 -5 -12
-18 -13 -21 -2 -20 1 11 27 38 33 45 31 47 -8z"/>
<path d="M2650 2875 c-11 -13 -10 -14 4 -9 9 3 16 10 16 15 0 13 -6 11 -20 -6z"/>
<path d="M2692 2881 c2 -7 7 -12 11 -12 12 1 9 15 -3 20 -7 2 -11 -2 -8 -8z"/>
<path d="M2736 2868 c3 -4 11 -5 19 -1 21 7 19 12 -4 10 -11 0 -18 -5 -15 -9z"/>
<path d="M2468 2993 c6 -2 18 -2 25 0 6 3 1 5 -13 5 -14 0 -19 -2 -12 -5z"/>
<path d="M2964 2968 c-11 -18 -14 -99 -4 -93 5 3 9 13 8 23 0 9 2 32 5 50 5
34 3 39 -9 20z"/>
<path d="M2904 2925 c-9 -14 -19 -23 -23 -20 -4 2 -8 -2 -8 -10 0 -13 3 -13
17 0 20 18 34 20 25 3 -4 -7 3 -2 14 11 20 22 20 41 1 41 -5 0 -17 -11 -26
-25z m23 0 c0 -8 -4 -12 -9 -9 -5 3 -6 10 -3 15 9 13 12 11 12 -6z"/>
<path d="M2334 2726 c1 -56 3 -61 23 -61 12 0 25 -4 30 -9 5 -5 2 -6 -6 -1
-10 6 -12 2 -7 -16 7 -23 6 -23 -6 -4 -19 30 -38 29 -38 -1 0 -17 4 -23 13
-18 9 6 9 4 -1 -8 -9 -11 -10 -18 -2 -23 5 -3 10 -1 10 5 0 6 4 9 9 5 5 -3 24
-7 41 -9 25 -3 30 0 25 12 -4 12 -3 13 9 2 9 -6 29 -13 46 -14 24 -2 29 1 25
13 -3 10 0 9 10 -3 14 -18 15 -15 15 45 0 38 -5 71 -12 78 -10 11 -10 13 0 7
7 -4 12 -1 12 7 0 9 -11 13 -35 13 -25 -1 -34 -5 -32 -16 1 -9 -7 -15 -20 -16
-12 -1 -20 3 -17 7 3 5 1 9 -5 9 -5 0 -12 -8 -14 -17 -4 -16 -5 -16 -6 -1 -1
23 17 32 35 17 8 -6 17 -9 20 -6 3 3 -3 12 -15 19 -12 7 -21 16 -21 21 0 4 4
5 10 2 5 -3 7 0 5 7 -4 9 -23 14 -53 14 l-48 0 0 -60z m35 11 c-7 -15 -17 -27
-22 -27 -5 0 -2 11 7 25 9 14 14 31 10 38 -5 9 -4 9 5 1 9 -8 9 -17 0 -37z
m37 31 c-3 -19 -25 -55 -26 -42 0 6 3 14 8 18 4 4 8 12 8 17 2 15 4 19 8 19 2
0 3 -6 2 -12z m89 -48 c-3 -5 -2 -10 3 -10 6 0 13 -8 16 -17 6 -16 6 -16 -12
0 -20 19 -32 14 -32 -14 0 -26 -14 -31 -36 -13 -18 14 -18 15 4 4 18 -9 22 -8
22 5 0 19 22 55 33 55 4 0 5 -4 2 -10z m-105 -14 c0 -2 -6 -9 -14 -15 -11 -9
-16 -9 -22 0 -4 8 -3 9 4 5 7 -4 12 -2 12 3 0 6 5 11 10 11 6 0 10 -2 10 -4z
m57 -12 c-3 -3 -12 -4 -19 -1 -8 3 -5 6 6 6 11 1 17 -2 13 -5z m-37 -14 c0 -5
-4 -10 -10 -10 -5 0 -10 5 -10 10 0 6 5 10 10 10 6 0 10 -4 10 -10z m106 -22
c5 -7 3 -8 -6 -3 -9 5 -10 1 -6 -16 6 -20 5 -21 -4 -6 -6 9 -8 22 -5 27 8 13
12 13 21 -2z m-92 -27 c4 -5 -3 -7 -14 -4 -23 6 -26 13 -6 13 8 0 17 -4 20 -9z
m66 -10 c0 -17 -21 -24 -33 -12 -9 9 -7 10 7 5 13 -5 17 -4 12 4 -4 7 -2 12 3
12 6 0 11 -4 11 -9z"/>
<path d="M2449 2786 c0 -1 -2 -8 -4 -17 -2 -12 6 -16 31 -16 19 0 34 4 34 9 0
5 -5 6 -12 2 -7 -4 -8 -3 -4 5 6 9 11 9 22 0 11 -9 14 -8 14 3 0 9 -12 14 -40
14 -22 0 -40 0 -41 0z"/>
<path d="M2590 2778 c0 -17 5 -23 23 -25 10 -2 16 1 12 6 -3 5 -1 12 4 15 11
7 26 -12 17 -21 -3 -4 -16 -7 -29 -8 -19 -1 -22 -8 -25 -53 -2 -37 1 -52 10
-53 8 0 7 -3 -3 -7 -13 -6 -14 -12 -7 -32 6 -14 12 -20 14 -14 3 6 22 8 54 4
33 -4 50 -3 50 4 0 6 5 4 10 -4 9 -14 14 -7 11 15 -1 6 4 3 11 -5 7 -9 21 -14
30 -12 24 5 24 110 -1 130 -15 13 -15 13 1 8 14 -4 16 1 15 29 l-2 34 -50 -3
c-34 -1 -49 -6 -47 -15 1 -7 -2 -10 -8 -6 -5 3 -10 1 -10 -5 0 -6 8 -10 18 -8
9 2 16 9 15 14 -1 6 5 11 13 11 12 0 12 -3 -1 -17 -8 -9 -15 -21 -15 -26 0 -5
11 3 25 18 15 16 31 25 40 22 8 -4 15 -8 15 -11 0 -3 -7 -3 -15 1 -15 5 -22
-9 -7 -17 4 -2 1 -2 -7 0 -8 2 -24 -5 -35 -15 -21 -19 -60 -27 -50 -10 3 4 0
8 -5 8 -6 0 -11 -8 -11 -17 0 -15 -2 -16 -10 -3 -6 10 -4 18 8 25 9 5 18 19
19 30 2 18 -4 21 -37 21 -22 0 -40 -3 -40 -8z m34 -63 c3 -8 1 -15 -3 -15 -5
0 -11 7 -15 15 -3 8 -1 15 3 15 5 0 11 -7 15 -15z m116 -5 c-6 -11 -15 -20
-20 -20 -6 0 -10 -7 -10 -17 0 -9 -3 -14 -6 -10 -9 9 6 48 17 42 5 -4 9 1 9 9
0 9 5 16 10 16 7 0 7 -6 0 -20z m23 -25 c-10 -8 -20 -11 -23 -8 -3 3 1 8 8 10
6 3 10 9 7 14 -4 5 1 6 10 3 14 -6 14 -8 -2 -19z m-76 9 c-3 -3 -12 -4 -19 -1
-8 3 -5 6 6 6 11 1 17 -2 13 -5z m-37 -14 c0 -5 -7 -7 -15 -3 -10 3 -15 1 -13
-7 2 -7 -3 -14 -10 -15 -7 -2 -8 -1 -2 2 7 3 8 9 1 17 -7 8 -3 12 15 14 13 1
24 -3 24 -8z m40 -20 c0 -5 -8 -6 -17 -3 -16 6 -17 5 -3 -13 14 -18 14 -18 -2
-5 -10 7 -15 17 -12 22 7 12 34 11 34 -1z m75 -10 c-4 -6 -2 -17 4 -24 8 -9 7
-13 -4 -13 -8 0 -11 5 -8 10 4 6 0 8 -10 4 -21 -8 -21 -3 -1 17 18 18 28 21
19 6z m-121 -8 c3 -5 -1 -9 -9 -9 -8 0 -12 4 -9 9 3 4 7 8 9 8 2 0 6 -4 9 -8z"/>
<path d="M2675 2730 c3 -5 11 -10 16 -10 6 0 7 5 4 10 -3 6 -11 10 -16 10 -6
0 -7 -4 -4 -10z"/>
<path d="M2347 2532 c-13 -3 -16 -19 -16 -103 l0 -100 101 3 102 3 1 97 c0 74
-3 99 -14 103 -9 4 -11 0 -7 -12 5 -16 4 -16 -6 -3 -13 16 -45 19 -64 7 -6 -3
-14 -4 -18 0 -7 7 -53 10 -79 5z m123 -32 c0 -5 -2 -10 -4 -10 -3 0 -8 5 -11
10 -3 6 -1 10 4 10 6 0 11 -4 11 -10z"/>
<path d="M2585 2523 c-2 -7 1 -13 7 -13 6 0 7 -5 2 -12 -5 -7 -9 -47 -9 -88
l0 -75 103 -3 102 -3 0 101 c0 59 -4 100 -10 101 -38 3 -68 2 -78 -5 -7 -4
-12 -4 -12 1 0 14 -99 9 -105 -4z m42 -18 c0 -8 -4 -12 -9 -9 -5 3 -6 10 -3
15 9 13 12 11 12 -6z"/>
<path d="M2330 2176 l0 -103 100 0 c63 0 100 4 103 11 3 9 1 168 -2 188 0 4
-46 7 -101 7 l-100 0 0 -103z"/>
<path d="M2586 2182 c1 -54 2 -100 3 -103 0 -3 46 -6 101 -5 l100 0 0 103 0
103 -103 -1 -102 -1 1 -96z"/>
<path d="M2353 2022 c-22 -3 -23 -7 -23 -103 0 -72 3 -99 13 -100 36 -4 181 1
186 6 10 11 7 195 -4 196 -35 3 -154 3 -172 1z"/>
</g>
</svg>
